Coordinates
version=1
nRows=15
nColumns=63
inDegrees=yes

Units are S.I. units (second, meters, Newtons, ...)
If the header above contains a line with 'inDegrees', this indicates whether rotational values are in degrees (yes) or radians (no).

endheader
time	pelvis_tilt	pelvis_list	pelvis_rotation	pelvis_tx	pelvis_ty	pelvis_tz	hip_flexion_r	hip_adduction_r	hip_rotation_r	knee_angle_r	knee_angle_r_beta	ankle_angle_r	subtalar_angle_r	mtp_angle_r	hip_flexion_l	hip_adduction_l	hip_rotation_l	knee_angle_l	knee_angle_l_beta	ankle_angle_l	subtalar_angle_l	mtp_angle_l	L5_S1_Flex_Ext	L5_S1_Lat_Bending	L5_S1_axial_rotation	L4_L5_Flex_Ext	L4_L5_Lat_Bending	L4_L5_axial_rotation	L3_L4_Flex_Ext	L3_L4_Lat_Bending	L3_L4_axial_rotation	L2_L3_Flex_Ext	L2_L3_Lat_Bending	L2_L3_axial_rotation	L1_L2_Flex_Ext	L1_L2_Lat_Bending	L1_L2_axial_rotation	L1_T12_Flex_Ext	L1_T12_Lat_Bending	L1_T12_axial_rotation	Abs_r3	Abs_r2	Abs_r1	Abs_t1	Abs_t2	neck_flexion	neck_bending	neck_rotation	arm_flex_r	arm_add_r	arm_rot_r	elbow_flex_r	pro_sup_r	wrist_flex_r	wrist_dev_r	arm_flex_l	arm_add_l	arm_rot_l	elbow_flex_l	pro_sup_l	wrist_flex_l	wrist_dev_l
0.000000	1.432451	-2.832582	89.538243	0.148013	0.623007	0.802162	7.718609	-2.078034	-9.334964	13.780177	0.240509	37.683556	16.987569	0.000000	9.948245	0.097125	-4.612277	12.886742	0.224916	36.281480	1.506345	0.000000	0.284587	-0.026788	-0.387849	0.528507	-0.035628	-0.412090	0.467548	-0.065133	-0.412090	0.325254	-0.065133	-0.339368	0.264267	-0.054626	-0.315127	0.162613	-0.041495	-0.290887	2.032776	-0.303032	-2.157101	0.000000	0.000000	24.365200	2.834402	5.264475	11.147993	-8.611844	53.563251	46.187753	34.401258	-2.435536	10.704386	13.249637	-5.850459	56.131717	40.559340	54.985794	-5.565665	2.930270
0.019608	1.988466	-2.951170	89.847139	0.147712	0.623590	0.802107	8.043106	-1.466323	-9.769506	13.550503	0.236501	37.638457	16.741103	0.000000	10.147988	-0.309737	-3.438714	12.901479	0.225173	36.137097	0.196998	0.000000	0.292131	0.038356	-0.401102	0.542516	0.051014	-0.426170	0.479942	0.093259	-0.426170	0.333876	0.093259	-0.350964	0.271273	0.078216	-0.325895	0.166924	0.059414	-0.300826	2.086661	0.433892	-2.230807	0.000000	0.000000	24.262031	2.556794	5.275809	10.363984	-8.479503	51.980095	45.832753	31.867309	-2.853880	11.310936	13.626885	-5.118895	58.171064	39.154603	55.419710	-6.084721	1.793254
0.039216	2.428909	-3.053852	90.054655	0.147572	0.624048	0.802156	8.327246	-0.975317	-10.083728	13.379596	0.233518	37.596763	16.547942	0.000000	10.306475	-0.640962	-2.538932	12.897702	0.225107	36.023842	-0.833375	0.000000	0.298132	0.089154	-0.400499	0.553662	0.118575	-0.425530	0.489802	0.216770	-0.425530	0.340736	0.216770	-0.350437	0.276846	0.181803	-0.325405	0.170353	0.138100	-0.300374	2.129530	1.008531	-2.227455	0.000000	0.000000	24.161055	2.311770	5.219176	9.801226	-8.392035	50.870121	45.471525	30.408347	-3.062444	11.770424	13.959716	-4.532842	59.981197	37.977991	55.388674	-6.538504	0.720903
0.058824	2.763693	-3.141894	90.170643	0.147577	0.624389	0.802302	8.575023	-0.594684	-10.288684	13.263221	0.231487	37.558876	16.402290	0.000000	10.428441	-0.903031	-1.888837	12.879217	0.224785	35.938968	-1.609181	0.000000	0.302695	0.126824	-0.387253	0.562134	0.168675	-0.411457	0.497297	0.308359	-0.411457	0.345950	0.308359	-0.338847	0.281082	0.258619	-0.314643	0.172960	0.196450	-0.290440	2.162118	1.434654	-2.153786	0.000000	0.000000	24.062855	2.098977	5.103557	9.435900	-8.344806	50.177065	45.110713	29.919666	-3.085469	12.094258	14.253148	-4.079778	61.577433	37.011711	54.977075	-6.933653	-0.279065
0.078431	3.002729	-3.216558	90.204958	0.147715	0.624623	0.802536	8.790430	-0.314094	-10.395430	13.197143	0.230334	37.525196	16.298347	0.000000	10.518620	-1.102423	-1.464337	12.849827	0.224272	35.879733	-2.154832	0.000000	0.305920	0.152581	-0.362576	0.568125	0.202933	-0.385237	0.502596	0.370987	-0.385237	0.349636	0.370987	-0.317254	0.284078	0.311144	-0.294593	0.174803	0.236349	-0.271932	2.185158	1.726032	-2.016539	0.000000	0.000000	23.968016	1.918064	4.937932	9.244187	-8.333181	49.844660	44.756960	30.296565	-2.947200	12.293843	14.512196	-3.747177	62.975092	36.237969	54.269301	-7.276807	-1.198932
0.098039	3.155929	-3.279109	90.167453	0.147969	0.624761	0.802851	8.977460	-0.123215	-10.415020	13.177127	0.229984	37.496124	16.230314	0.000000	10.581747	-1.245619	-1.241337	12.813340	0.223635	35.843390	-2.494736	0.000000	0.307912	0.167645	-0.327679	0.571823	0.222968	-0.348159	0.505869	0.407612	-0.348159	0.351913	0.407612	-0.286719	0.285927	0.341862	-0.266239	0.175941	0.259682	-0.245759	2.199385	1.896434	-1.822454	0.000000	0.000000	23.877119	1.768679	4.731281	9.202271	-8.352526	49.816643	44.416908	31.434340	-2.671880	12.380587	14.741874	-3.522516	64.189491	35.638972	53.349739	-7.574604	-2.030980
0.117647	3.233203	-3.330812	90.067982	0.148326	0.624811	0.803237	9.140107	-0.011718	-10.358507	13.198941	0.230365	37.472060	16.192394	0.000000	10.622554	-1.339100	-1.195745	12.773559	0.222941	35.827197	-2.653302	0.000000	0.308773	0.173232	-0.283775	0.573422	0.230398	-0.301511	0.507282	0.421196	-0.301511	0.352896	0.421196	-0.248303	0.286726	0.353254	-0.230567	0.176433	0.268336	-0.212831	2.205532	1.959631	-1.578270	0.000000	0.000000	23.790750	1.650471	4.492587	9.286331	-8.398206	50.036748	44.097203	33.228288	-2.283752	12.365897	14.947197	-3.393270	65.235949	35.196926	52.302779	-7.833682	-2.767492
0.137255	3.244465	-3.372929	89.916399	0.148771	0.624783	0.803686	9.282362	0.030729	-10.236947	13.258348	0.231402	37.453407	16.178786	0.000000	10.645777	-1.389346	-1.303468	12.734290	0.222255	35.828407	-2.654941	0.000000	0.308605	0.170559	-0.232074	0.573110	0.226843	-0.246579	0.507007	0.414696	-0.246579	0.352704	0.414696	-0.203065	0.286570	0.347803	-0.188560	0.176337	0.264195	-0.174056	2.204333	1.929393	-1.290726	0.000000	0.000000	23.709490	1.563087	4.230828	9.472551	-8.465587	50.448709	43.804486	35.573705	-1.807059	12.261180	15.133182	-3.346917	66.129783	34.894036	51.212807	-8.060680	-3.400750
0.156863	3.199624	-3.406726	89.722556	0.149289	0.624688	0.804191	9.408220	0.014456	-10.061394	13.351114	0.233021	37.440563	16.183694	0.000000	10.656150	-1.402836	-1.540411	12.699338	0.221645	35.844277	-2.524061	0.000000	0.307511	0.160843	-0.173789	0.571079	0.213921	-0.184651	0.505210	0.391074	-0.184651	0.351454	0.391074	-0.152066	0.285555	0.327991	-0.141204	0.175712	0.249146	-0.130342	2.196521	1.819490	-0.966564	0.000000	0.000000	23.633925	1.506178	3.954986	9.737112	-8.550033	50.996263	43.545401	38.365889	-1.266045	12.077841	15.304844	-3.370932	66.886312	34.712509	50.164212	-8.262237	-3.923036
0.176471	3.108592	-3.433466	89.496308	0.149866	0.624534	0.804742	9.521673	-0.050207	-9.842903	13.473005	0.235148	37.433931	16.201317	0.000000	10.658406	-1.386052	-1.882482	12.672508	0.221177	35.872062	-2.285072	0.000000	0.305595	0.145303	-0.110132	0.567520	0.193252	-0.117015	0.502061	0.353289	-0.117015	0.349264	0.353289	-0.096366	0.283775	0.296301	-0.089482	0.174617	0.225074	-0.082599	2.182832	1.643691	-0.612522	0.000000	0.000000	23.564636	1.479389	3.674042	10.056195	-8.646911	51.623143	43.326592	41.500137	-0.684954	11.827289	15.467197	-3.452792	67.520854	34.634551	49.241383	-8.444990	-4.326632
0.196078	2.981282	-3.454413	89.247508	0.150487	0.624332	0.805331	9.626715	-0.152927	-9.592527	13.619786	0.237710	37.433911	16.225858	0.000000	10.657281	-1.345474	-2.305586	12.657606	0.220917	35.909017	-1.962383	0.000000	0.302958	0.125154	-0.042314	0.562623	0.166455	-0.044959	0.497730	0.304299	-0.044959	0.346251	0.304299	-0.037025	0.281327	0.255214	-0.034380	0.173110	0.193864	-0.031736	2.163999	1.415767	-0.235340	0.000000	0.000000	23.502208	1.482371	3.396977	10.405983	-8.751585	52.273085	43.154702	44.871744	-0.088027	11.520929	15.625257	-3.579971	68.048727	34.642368	48.528707	-8.615578	-4.603821
0.215686	2.837856	-3.470043	89.007516	0.151104	0.624107	0.805984	9.730084	-0.266749	-9.290784	13.777548	0.240464	37.450313	16.207678	0.000000	10.673488	-1.289829	-2.727058	12.670563	0.221143	35.953795	-1.646348	0.000000	0.299150	0.102661	0.029324	0.555551	0.136539	0.031156	0.491473	0.249610	0.031156	0.341898	0.249610	0.025658	0.277791	0.209347	0.023825	0.170934	0.159022	0.021993	2.136797	1.161324	0.163089	0.000000	0.000000	23.404673	1.504608	3.138046	10.721828	-8.873950	52.730969	43.040246	48.759548	0.558422	11.155299	15.827020	-3.734156	68.653852	34.663844	48.771222	-8.872259	-4.825087
0.235294	2.679988	-3.491671	88.786112	0.151734	0.623825	0.806664	9.849190	-0.401973	-9.026040	13.963252	0.243705	37.484831	16.186122	0.000000	10.715518	-1.230745	-3.216494	12.730830	0.222195	35.998954	-1.244342	0.000000	0.295187	0.077500	0.105198	0.548192	0.103074	0.111773	0.484963	0.188432	0.111773	0.337370	0.188432	0.092048	0.274111	0.158037	0.085473	0.168670	0.120047	0.078899	2.108493	0.876691	0.585080	0.000000	0.000000	23.377627	1.578796	2.877461	10.964345	-8.983238	52.980653	43.052003	52.314799	1.029163	10.779948	16.047395	-3.881526	69.104849	34.744375	49.603558	-9.135443	-4.734136
0.254902	2.516633	-3.520144	88.568736	0.152372	0.623501	0.807342	9.992986	-0.549967	-8.804786	14.181828	0.247520	37.538588	16.188775	0.000000	10.777347	-1.176716	-3.785016	12.828504	0.223900	36.042480	-0.758736	0.000000	0.291849	0.051718	0.182219	0.541992	0.068785	0.193608	0.479478	0.125746	0.193608	0.333554	0.125746	0.159442	0.271011	0.105463	0.148053	0.166762	0.080111	0.136665	2.084647	0.585041	1.013450	0.000000	0.000000	23.400257	1.719018	2.701761	11.144885	-9.076317	53.065910	43.155489	55.448696	1.400210	10.335523	16.260104	-4.017128	69.369231	34.869560	50.926971	-9.376656	-4.399003
0.274510	2.358126	-3.546721	88.371030	0.152992	0.623164	0.808037	10.147308	-0.692184	-8.590513	14.410534	0.251511	37.591109	16.151650	0.000000	10.851647	-1.110232	-4.199788	12.952134	0.226057	36.035521	-0.472476	0.000000	0.287403	0.026282	0.256951	0.533737	0.034955	0.273011	0.472175	0.063902	0.273011	0.328473	0.063902	0.224832	0.266883	0.053595	0.208773	0.164222	0.040711	0.192713	2.052894	0.297309	1.429086	0.000000	0.000000	23.459719	1.892333	2.564255	11.246615	-9.137682	52.889581	43.339887	58.302442	1.671989	9.944302	16.515927	-4.160296	69.655450	35.027886	52.377990	-9.601171	-3.909124
